# AST/ASF file generated using VICON BodyLanguage
# -----------------------------------------------
:version 1.10
:name VICON
:units
  mass 1.0
  length 0.45
  angle deg
:documentation
   .ast/.asf automatically generated from VICON data using
   VICON BodyBuilder and BodyLanguage model FoxedUp or BRILLIANT.MOD
:root
   order TX TY TZ RX RY RZ
   axis XYZ
   position 0 0 0  
   orientation 0 0 0 
:bonedata
  begin
     id 1 
     name lhipjoint
     direction 0.700308 -0.549349 0.455834 
     length 2.59063 
     axis 0 0 0  XYZ
  end
  begin
     id 2 
     name lfemur
     direction 0.34202 -0.939693 0  
     length 6.31066  
     axis 0 0 20  XYZ
    dof rx ry rz
    limits (-160.0 20.0)
           (-70.0 70.0)
           (-60.0 70.0)
  end
  begin
     id 3 
     name ltibia
     direction 0.34202 -0.939693 0   
     length 7.36093   
     axis 0 0 20   XYZ
    dof rx
    limits (-10.0 170.0)
  end
  begin
     id 4 
     name lfoot
     direction 0.0905332 -0.248738 0.96433   
     length 2.0233   
     axis -90 7.62852e-016 20   XYZ
    dof rx rz
    limits (-45.0 90.0)
           (-70.0 20.0)
  end
  begin
     id 5 
     name ltoes
     direction 1.53573e-011 -4.21855e-011 1   
     length 1.01524   
     axis -90 7.62852e-016 20   XYZ
    dof rx
    limits (-90.0 20.0)
  end
  begin
     id 6 
     name rhipjoint
     direction -0.61416 -0.607328 0.503944   
     length 2.34332  
     axis 0 0 0  XYZ 
  end
  begin
     id 7 
     name rfemur
     direction -0.34202 -0.939693 0   
     length 6.58548   
     axis 0 0 -20   XYZ
    dof rx ry rz
    limits (-160.0 20.0)
           (-70.0 70.0)
           (-70.0 60.0)
  end
  begin
     id 8 
     name rtibia
     direction -0.34202 -0.939693 0   
     length 7.20707   
     axis 0 0 -20   XYZ
    dof rx
    limits (-10.0 170.0)
 end
 begin
     id 9 
     name rfoot
     direction -0.136772 -0.375778 0.916561   
     length 1.92184  
     axis -90 -7.62852e-016 -20   XYZ
    dof rx rz
    limits (-45.0 90.0)
           (-20.0 70.0)
  end
  begin
     id 10 
     name rtoes
     direction -1.53535e-011 -4.21828e-011 1   
     length 0.951089   
     axis -90 -7.62852e-016 -20   XYZ
    dof rx
    limits (-90.0 20.0)
  end
  begin
     id 11 
     name lowerback
     direction -0.0444974 0.988086 -0.147332   
     length 1.9609   
     axis 0 0 0   XYZ
    dof rx ry rz
    limits (-20.0 45.0)
           (-30.0 30.0)
           (-30.0 30.0)
  end
  begin
     id 12 
     name upperback
     direction 0.00613146 0.999513 0.0306081   
     length 1.94944   
     axis 0 0 0   XYZ
    dof rx ry rz
    limits (-20.0 45.0)
           (-30.0 30.0)
           (-30.0 30.0)
  end
  begin
     id 13 
     name thorax
     direction 0.0254621 0.994518 0.101418   
     length 2.0119   
     axis 0 0 0   XYZ
    dof rx ry rz
    limits (-20.0 45.0)
           (-30.0 30.0)
           (-30.0 30.0)
  end
  begin
     id 14 
     name lowerneck
     direction 0.0168698 0.977854 0.208608   
     length 1.6375   
     axis 0 0 0   XYZ
    dof rx ry rz
    limits (-20.0 45.0)
           (-30.0 30.0)
           (-30.0 30.0)
  end
  begin
     id 15 
     name upperneck
     direction -0.0283988 0.989338 -0.142843   
     length 1.6851   
     axis 0 0 0   XYZ
    dof rx ry rz
    limits (-20.0 45.0)
           (-30.0 30.0)
           (-30.0 30.0)
  end
  begin
     id 16
     name head
     direction -0.0129422 0.99741 -0.0707489  
     length 1.69029  
     axis 0 0 0   XYZ
    dof rx ry rz
    limits (-20.0 45.0)
           (-30.0 30.0)
           (-30.0 30.0)
  end
  begin
     id 17 
     name lclavicle
     direction 0.820295 0.564628 -0.0911715  
     length 3.16484  
     axis 0 0 0   XYZ
    dof ry rz
    limits (-20.0 10.0)
           (0.0 20.0)
  end
  begin
     id 18 
     name lhumerus
     direction 1 -4.48969e-011 1.00186e-027   
     length 5.17853   
     axis 180 -30 -90   XYZ
    dof rx ry rz
    limits (-60.0 90.0)
           (-90.0 90.0)
           (-90.0 90.0)
  end
  begin
     id 19
     name lradius
     direction 1 -4.48966e-011 -1.52922e-027   
     length 3.40399   
     axis 180 -30 -90   XYZ
    dof rx
    limits (-10.0 170.0)
  end
  begin
     id 20
     name lwrist
     direction 1 -4.48981e-011 -3.80893e-027   
     length 1.70199   
     axis 1.1049e-015 90 90   XYZ
    dof ry
    limits (-180.0 0.0)
 end
  begin
     id 21 
     name lhand
     direction 1 -4.48957e-011 -7.61786e-027   
     length 0.708964   
     axis 4.86085e-015 90 90   XYZ
    dof rx rz
    limits (-90.0 90.0)
           (-45.0 45.0)
  end
  begin
     id 22 
     name lfingers
     direction 1 -4.48929e-011 -1.52357e-026   
     length 0.571585   
     axis 9.7217e-015 90 90   XYZ
    dof rx
    limits (0.0 90.0)
  end
  begin
     id 23
     name lthumb
     direction 0.707107 -6.34905e-011 0.707107   
     length 0.820685   
     axis -90 45 2.85299e-015   XYZ
    dof rx rz
    limits (-45.0 45.0)
           (-45.0 45.0)
  end
  begin
     id 24 
     name rclavicle
     direction -0.858602 0.463947 -0.218075   
     length 3.35137  
     axis 0 0 0   XYZ 
    dof ry rz
    limits (-10.0 20.0)
           (-20.0 0.0)
  end
  begin
     id 25 
     name rhumerus
     direction -1 -4.48969e-011 -1.98511e-027  
     length 5.42351   
     axis 180 30 90   XYZ
    dof rx ry rz
    limits (-90.0 60.0)
           (-90.0 90.0)
           (-90.0 90.0)
  end
  begin
     id 26 
     name rradius
     direction -1 -4.48961e-011 -2.82624e-027   
     length 3.42066   
     axis 180 30 90   XYZ
    dof rx
    limits (-10.0 170.0)
  end
  begin
     id 27 
     name rwrist
     direction -1 -4.48966e-011 -3.80893e-027   
     length 1.71033   
     axis 1.1049e-015 -90 -90   XYZ
    dof ry
    limits (-180.0 0.0)
  end
  begin
     id 28
     name rhand
     direction -1 -4.48964e-011 -7.61786e-027   
     length 0.743608   
     axis 4.86085e-015 -90 -90   XYZ
    dof rx rz
    limits (-90.0 90.0)
           (-45.0 45.0)
  end
  begin
     id 29
     name rfingers
     direction -1 -4.48961e-011 -1.52357e-026   
     length 0.599516   
     axis 9.7217e-015 -90 -90   XYZ
    dof rx
    limits (0.0 90.0)
  end
  begin
     id 30
     name rthumb
     direction -0.707107 -6.34913e-011 0.707107   
     length 0.860789   
     axis -90 -45 -2.85299e-015   XYZ
    dof rx rz
    limits (-45.0 45.0)
           (-45.0 45.0)
  end
:hierarchy
  begin
    root lhipjoint rhipjoint lowerback
    lhipjoint lfemur
    lfemur ltibia
    ltibia lfoot
    lfoot ltoes
    rhipjoint rfemur
    rfemur rtibia
    rtibia rfoot
    rfoot rtoes
    lowerback upperback
    upperback thorax
    thorax lowerneck lclavicle rclavicle
    lowerneck upperneck
    upperneck head
    lclavicle lhumerus
    lhumerus lradius
    lradius lwrist
    lwrist lhand lthumb
    lhand lfingers
    rclavicle rhumerus
    rhumerus rradius
    rradius rwrist
    rwrist rhand rthumb
    rhand rfingers
  end

#!OML:ASF E:\mmandel\Project 1\Capture day 1\Session 2\Subject.ASF
:FULLY-SPECIFIED
:DEGREES
483
root -2.53068 2.06067 3.62086 118.864 80.0671 -168.124
lowerback 30.8192 -0.482609 -1.57267
upperback 13.9577 0.904411 3.47983
thorax -1.12221 1.11167 4.46961
lowerneck -1.94092 -4.22685 -0.501387
upperneck 39.7753 -3.66423 0.333959
head 13.9068 -0.496519 0.0837144
rclavicle -4.63168e-014 -1.94809e-014
rhumerus 4.59554 23.3573 -62.6512
rradius 32.9428
rwrist -10.4184
rhand -0.199812 28.7081
rfingers 7.12502
rthumb 25.399 0.379946
lclavicle -4.63168e-014 -1.94809e-014
lhumerus 13.5487 -47.2948 48.5413
lradius 39.7191
lwrist 11.5661
lhand -15.0645 -27.4016
lfingers 7.12502
lthumb 11.1026 2.28468
rfemur -41.5758 -12.4911 27.8278
rtibia 54.8915
rfoot 2.33401 -13.2078
rtoes -4.71189
lfemur -43.1651 9.15524 -5.50145
ltibia 53.7143
lfoot 10.1972 -2.33929
ltoes 13.5635
484
root -2.52707 2.07398 3.61381 119.346 79.9075 -168.23
lowerback 30.5715 -0.400135 -1.83535
upperback 13.947 0.9331 3.56913
thorax -1.02722 1.10284 4.71316
lowerneck -1.8267 -4.13871 -0.454014
upperneck 39.7097 -3.48457 0.230725
head 13.8453 -0.423647 0.0558044
rclavicle 1.11319e-014 -7.55382e-015
rhumerus 4.12367 23.6264 -62.2313
rradius 33.7014
rwrist -11.1448
rhand -0.505679 28.4623
rfingers 7.12502
rthumb 25.1059 0.0928949
lclavicle 1.11319e-014 -7.55382e-015
lhumerus 12.9365 -47.4713 49.0691
lradius 39.8143
lwrist 12.2423
lhand -14.9523 -27.1911
lfingers 7.12502
lthumb 11.2107 2.48933
rfemur -42.5088 -12.8727 27.7882
rtibia 55.5425
rfoot 2.86955 -12.7308
rtoes -7.37499
lfemur -43.7997 9.40687 -6.06283
ltibia 54.0719
lfoot 10.3981 -2.69745
ltoes 11.6099
485
root -2.56528 2.08783 3.62312 121.8 79.2315 -166.835
lowerback 29.9635 -0.490249 -1.97563
upperback 13.681 0.717964 3.44461
thorax -1.0426 0.96423 4.71481
lowerneck -1.76949 -4.20274 -0.448962
upperneck 39.8213 -3.55801 0.232363
head 13.8869 -0.446432 0.0498287
rclavicle 7.7526e-015 5.28767e-014
rhumerus 3.24655 23.6392 -62.2388
rradius 34.4871
rwrist -11.732
rhand -0.734169 28.3386
rfingers 7.12502
rthumb 24.887 -0.0613258
lclavicle 7.7526e-015 5.28767e-014
lhumerus 12.2877 -48.1812 49.1209
lradius 40.2193
lwrist 13.0675
lhand -14.9701 -26.9
lfingers 7.12502
lthumb 11.1935 2.78145
rfemur -43.7808 -13.4137 27.4531
rtibia 56.0436
rfoot 2.69797 -12.8615
rtoes -5.0155
lfemur -45.5033 8.73392 -6.49689
ltibia 54.5707
lfoot 9.10501 -0.787456
ltoes 23.1002
486
root -2.50672 2.08301 3.59485 120.056 79.0635 -168.872
lowerback 30.5361 -0.327232 -2.03413
upperback 13.577 0.905366 3.13843
thorax -1.43125 1.07663 4.34814
lowerneck -1.93013 -4.14504 -0.226648
upperneck 40.1083 -3.5952 0.59728
head 14.0649 -0.364154 0.157703
rclavicle -2.78299e-015 8.26944e-014
rhumerus 2.25757 23.7189 -62.322
rradius 35.4277
rwrist -12.6028
rhand -1.02279 28.2416
rfingers 7.12502
rthumb 24.6104 -0.196297
lclavicle -2.78299e-015 8.26944e-014
lhumerus 12.1169 -49.2029 48.4164
lradius 40.8316
lwrist 14.1362
lhand -15.1824 -26.4053
lfingers 7.12502
lthumb 10.9888 3.28705
rfemur -44.6185 -13.6248 27.2266
rtibia 56.8805
rfoot 3.02041 -13.0249
rtoes -4.12034
lfemur -45.6528 9.42302 -7.42259
ltibia 54.9423
lfoot 8.11416 -1.1594
ltoes 21.9883
487
root -2.49758 2.08724 3.58747 119.951 78.7867 -169.577
lowerback 30.4537 -0.255123 -2.57096
upperback 13.6266 0.8555 3.16451
thorax -1.3275 1.02322 4.70558
lowerneck -2.1076 -4.09333 -0.270466
upperneck 39.9358 -3.45405 0.334072
head 14.0124 -0.364054 0.0661799
rclavicle 2.18663e-015 2.54444e-014
rhumerus 1.95107 24.4175 -61.8267
rradius 36.3356
rwrist -13.548
rhand -1.37639 28.0607
rfingers 7.12502
rthumb 24.2714 -0.422958
lclavicle 2.18663e-015 2.54444e-014
lhumerus 11.3387 -48.9885 48.9498
lradius 41.0069
lwrist 14.4721
lhand -15.388 -26.1378
lfingers 7.12502
lthumb 10.7906 3.56501
rfemur -45.4965 -13.9202 27.0423
rtibia 57.3803
rfoot 2.84043 -13.3144
rtoes -1.08067
lfemur -46.6134 9.61286 -8.00186
ltibia 55.463
lfoot 8.1932 -1.1493
ltoes 22.2551
488
root -2.51671 2.09508 3.59019 120.362 78.4804 -169.912
lowerback 30.0755 -0.257248 -3.16003
upperback 13.7658 0.702503 3.2095
thorax -0.974991 0.907097 5.14721
lowerneck -2.45394 -3.91353 -0.421187
upperneck 39.7883 -3.16958 0.236827
head 14.0165 -0.29869 0.0762621
rclavicle 8.15017e-015 -9.93923e-015
rhumerus 2.00966 24.843 -61.4102
rradius 37.0206
rwrist -14.0906
rhand -1.76289 28.1701
rfingers 7.12502
rthumb 23.9008 -0.362551
lclavicle 8.15017e-015 -9.93923e-015
lhumerus 10.449 -48.2858 49.7628
lradius 41.0552
lwrist 14.4729
lhand -15.4435 -26.2369
lfingers 7.12502
lthumb 10.737 3.46875
rfemur -46.4466 -14.2318 26.9029
rtibia 57.9003
rfoot 2.57206 -13.2605
rtoes -0.171544
lfemur -47.7526 9.59421 -8.37592
ltibia 56.0121
lfoot 8.05651 -0.653255
ltoes 25.8956
489
root -2.50065 2.10034 3.58242 120.723 78.3612 -170.005
lowerback 30.009 -0.283254 -3.07632
upperback 13.9094 0.704504 3.01976
thorax -0.781884 0.922402 4.88801
lowerneck -2.66444 -3.85197 -0.214988
upperneck 39.6496 -3.18574 0.371245
head 13.9934 -0.275271 0.0857334
rclavicle -1.15295e-014 5.4467e-014
rhumerus 1.55381 24.6381 -61.4915
rradius 37.8198
rwrist -14.5465
rhand -1.98828 28.123
rfingers 7.12502
rthumb 23.6846 -0.437816
lclavicle -1.15295e-014 5.4467e-014
lhumerus 10.2013 -48.3732 49.6278
lradius 41.2975
lwrist 14.8984
lhand -15.2905 -26.3446
lfingers 7.12502
lthumb 10.8846 3.3533
rfemur -47.1477 -14.5111 26.8877
rtibia 58.3878
rfoot 3.21722 -12.2583
rtoes -5.4192
lfemur -48.3995 9.87203 -8.7751
ltibia 56.5739
lfoot 7.85987 -0.755204
ltoes 28.7928
490
root -2.48314 2.10523 3.57264 121.763 78.6285 -169.157
lowerback 30.3569 -0.3223 -2.5014
upperback 13.9488 0.824091 2.88971
thorax -0.910339 1.03034 4.37387
lowerneck -2.762 -3.94739 0.2182
upperneck 39.7149 -3.34977 0.245527
head 14.0316 -0.297575 -0.0635828
rclavicle -1.45113e-014 -1.07344e-014
rhumerus 0.627394 24.3528 -61.7325
rradius 38.773
rwrist -15.06
rhand -2.11459 27.7771
rfingers 7.12502
rthumb 23.5635 -0.799341
lclavicle -1.45113e-014 -1.07344e-014
lhumerus 9.83275 -48.8566 49.5113
lradius 41.6374
lwrist 15.5427
lhand -14.9541 -26.1975
lfingers 7.12502
lthumb 11.209 3.48305
rfemur -47.4916 -14.783 27.2591
rtibia 58.7747
rfoot 3.58734 -12.1148
rtoes -5.28313
lfemur -48.8844 10.2452 -8.71036
ltibia 57.2297
lfoot 8.00748 -1.21976
ltoes 28.9149
491
root -2.47178 2.10886 3.56182 123.707 79.1453 -167.377
lowerback 30.6649 -0.441576 -1.72355
upperback 13.9977 0.906106 2.89287
thorax -1.0042 1.12317 3.90209
lowerneck -2.68021 -3.98687 0.433467
upperneck 39.6767 -3.41657 0.195842
head 13.9881 -0.303193 -0.12946
rclavicle -1.74931e-014 -9.38264e-014
rhumerus -0.301767 24.3873 -61.8218
rradius 39.724
rwrist -15.7651
rhand -2.30788 27.5763
rfingers 7.12502
rthumb 23.3781 -1.02388
lclavicle -1.74931e-014 -9.38264e-014
lhumerus 9.21815 -49.2751 49.6512
lradius 42.0171
lwrist 16.1742
lhand -14.8093 -25.7818
lfingers 7.12502
lthumb 11.3486 3.8911
rfemur -47.7619 -15.1279 27.9795
rtibia 59.1627
rfoot 3.90077 -11.9689
rtoes -4.85071
lfemur -49.45 10.6171 -8.26468
ltibia 57.8889
lfoot 8.66329 -1.74128
ltoes 27.0802
492
root -2.46439 2.11255 3.55093 126.055 79.7207 -165.267
lowerback 30.8382 -0.585241 -0.878646
upperback 14.0759 0.979294 2.92232
thorax -1.0002 1.21194 3.42489
lowerneck -2.33266 -3.87108 0.349586
upperneck 39.3806 -3.38139 0.663804
head 13.7869 -0.253117 0.0824591
rclavicle -8.44835e-015 -7.95139e-016
rhumerus -1.20907 24.3406 -61.9155
rradius 40.7309
rwrist -16.3004
rhand -2.47932 27.4199
rfingers 7.12502
rthumb 23.2136 -1.20105
lclavicle -8.44835e-015 -7.95139e-016
lhumerus 8.65499 -49.7842 49.6297
lradius 42.5352
lwrist 16.9561
lhand -14.8688 -25.5275
lfingers 7.12502
lthumb 11.2912 4.14858
rfemur -48.1376 -15.4321 28.8045
rtibia 59.553
rfoot 3.96401 -11.7502
rtoes -5.74023
lfemur -50.0757 10.9442 -7.70123
ltibia 58.5295
lfoot 9.34431 -2.14455
ltoes 26.2705
493
root -2.45329 2.11816 3.53849 125.881 79.58 -166.133
lowerback 30.7644 -0.545589 -0.9441
upperback 14.0525 0.999338 2.78061
thorax -0.994838 1.21983 3.29879
lowerneck -2.10896 -3.699 0.159861
upperneck 39.1956 -3.26503 1.20247
head 13.6701 -0.169388 0.348667
rclavicle -1.12313e-014 -2.94201e-014
rhumerus -1.98073 24.2011 -61.9864
rradius 41.7731
rwrist -16.6084
rhand -2.6 27.1384
rfingers 7.12502
rthumb 23.0978 -1.49716
lclavicle -1.12313e-014 -2.94201e-014
lhumerus 8.08501 -50.2932 49.5961
lradius 43.0851
lwrist 17.95
lhand -14.896 -25.5262
lfingers 7.12502
lthumb 11.2651 4.15134
rfemur -49.1391 -15.6044 28.7375
rtibia 60.0207
rfoot 4.23362 -11.623
rtoes -6.2349
lfemur -50.9909 11.2357 -8.22327
ltibia 59.1301
lfoot 9.51188 -2.25754
ltoes 26.8621
494
root -2.43684 2.12015 3.52256 125.598 79.1156 -167.209
lowerback 30.8633 -0.503703 -1.54735
upperback 13.8396 0.858149 2.75532
thorax -1.26975 1.10749 3.65781
lowerneck -2.2687 -3.62903 0.0699515
upperneck 39.4698 -3.03135 0.935523
head 13.828 -0.101375 0.285845
rclavicle 5.46658e-015 5.36719e-014
rhumerus -2.73802 24.8348 -61.7839
rradius 42.8866
rwrist -17.2584
rhand -2.66602 26.7601
rfingers 7.12502
rthumb 23.0345 -1.88336
lclavicle 5.46658e-015 5.36719e-014
lhumerus 6.64777 -50.4808 50.5345
lradius 43.4974
lwrist 18.8034
lhand -15.2291 -25.3392
lfingers 7.12502
lthumb 10.9438 4.35556
rfemur -50.3751 -15.996 28.4012
rtibia 60.6863
rfoot 4.6304 -11.9226
rtoes -3.6329
lfemur -51.9673 11.3644 -9.16017
ltibia 59.5864
lfoot 9.6227 -2.52387
ltoes 26.4176
495
root -2.41607 2.11074 3.5012 130.881 79.9491 -161.94
lowerback 30.8839 -1.01532 0.110298
upperback 14.2181 0.724746 2.7868
thorax -0.842359 1.14991 2.78485
lowerneck -2.6305 -3.65049 0.444733
upperneck 39.3557 -3.06916 0.646184
head 13.8356 -0.121758 0.0869925
rclavicle -1.45113e-014 3.04141e-014
rhumerus -3.22019 24.8361 -61.8405
rradius 43.8784
rwrist -18.0268
rhand -2.96371 26.5937
rfingers 7.12502
rthumb 22.7488 -2.08517
lclavicle -1.45113e-014 3.04141e-014
lhumerus 6.39829 -50.6808 50.2201
lradius 43.9626
lwrist 19.5957
lhand -15.4893 -24.9561
lfingers 7.12502
lthumb 10.6928 4.75183
rfemur -50.5727 -16.622 29.7286
rtibia 61.2052
rfoot 4.33733 -11.636
rtoes -3.33688
lfemur -52.5372 11.5135 -8.12364
ltibia 60.2078
lfoot 9.74634 -2.88582
ltoes 26.0994
